<?xml version="1.0" standalone="no"?>
<!DOCTYPE svg PUBLIC "-//W3C//DTD SVG 20010904//EN"
 "http://www.w3.org/TR/2001/REC-SVG-20010904/DTD/svg10.dtd">
<svg version="1.0" xmlns="http://www.w3.org/2000/svg"
 width="260.000000pt" height="260.000000pt" viewBox="0 0 260.000000 260.000000"
 preserveAspectRatio="xMidYMid meet">
<metadata>
Created by potrace 1.14, written by Peter Selinger 2001-2017
</metadata>
<g transform="translate(0.000000,260.000000) scale(0.100000,-0.100000)"
fill="#000000" stroke="none">
<path d="M454 1845 l0 -205 278 0 c173 0 286 -4 300 -11 13 -5 32 -23 43 -38
19 -28 20 -45 20 -535 0 -339 3 -506 10 -507 14 0 247 0 332 0 l73 1 -2 523
c-1 412 -4 534 -15 577 -48 188 -195 336 -379 384 -50 13 -121 16 -361 16
l-299 0 0 -205z"/>
<path d="M1512 1845 l0 -205 285 0 285 0 34 -34 c32 -32 34 -38 35 -102 0 -38
0 -268 0 -511 l0 -443 62 -1 c67 -1 299 -1 332 0 20 1 20 6 20 528 -1 475 -3
534 -19 588 -55 185 -194 322 -376 370 -42 11 -125 15 -357 15 l-301 0 0 -205z"/>
<path d="M34 1615 c-2 -5 -2 -248 -1 -539 l2 -528 200 0 c110 0 205 1 211 1 8
1 11 149 10 538 l-1 538 -209 0 c-130 0 -210 -4 -212 -10z"/>
</g>
</svg>
